<svg xmlns="http://www.w3.org/2000/svg" xmlns:svg="http://www.w3.org/2000/svg" xmlns:xlink="http://www.w3.org/1999/xlink" version="1.0" height="590pt" width="910.0000000000002pt" viewBox="545 36.99999999999999 918.0000000000002 596" ><defs><style type="text/css">
            @font-face {
                font-family: 'noto_regular';
                src: url('https://app.creately.com/diagram/assets/fonts/noto/noto-regular.woff') format('woff'),
                     url('https://app.creately.com/diagram/assets/fonts/noto/noto-regular.woff2') format('woff2');
                font-weight: normal;
                font-style: normal;
            }
        p {
            margin: 0;
        }
        </style></defs><defs><style>
            span{ display: inline-block; }
        </style></defs><g id="INF7abZjIEF"><g transform="translate(550 39.99999999999999)"><rect x="0" y="0" width="180" height="122" rx="2" ry="2" fill="rgb(255,255,255)" stroke="#43A047" stroke-width="2" stroke-linecap="round" stroke-linejoin="round"/><path d="M 0,28.4 L 180,28.4 M 0,93.6 L 180,93.6" fill="rgb(255,255,255)" stroke="#43A047" stroke-width="2" stroke-linecap="round" stroke-linejoin="round"/></g><g transform="translate(621.055, 44.99999999999999) rotate(0, 18.945, 0)" width="37.89" height="18.4"><text text-decoration="none" x="1.9450000000000003" fill="#43A047" font-size="10pt" font-family="noto_regular"  y="15">Movie</text><text text-decoration="none" x="35.945" fill="#4b4b4b" font-size="10pt" font-family="noto_regular"  y="15"></text></g><g transform="translate(555, 73.39999999999999) rotate(0, 0, 0)" width="150.54" height="55.2"><text text-decoration="none" x="0" fill="#43A047" font-size="10pt" font-family="noto_regular"  y="12">+&#160;</text><text text-decoration="none" x="10" fill="#43A047" font-size="10pt" font-family="noto_regular"  y="12">MovieName:&#160;</text><text text-decoration="none" x="84" fill="#43A047" font-size="10pt" font-family="noto_regular"  y="12">Char</text><text text-decoration="none" x="110" fill="#43A047" font-size="10pt" font-family="noto_regular"  y="12"></text><text text-decoration="none" x="0" fill="#43A047" font-size="10pt" font-family="noto_regular"  y="28">+&#160;</text><text text-decoration="none" x="10" fill="#43A047" font-size="10pt" font-family="noto_regular"  y="28">MovieShow:&#160;</text><text text-decoration="none" x="82" fill="#43A047" font-size="10pt" font-family="noto_regular"  y="28">DateTime</text><text text-decoration="none" x="138" fill="#43A047" font-size="10pt" font-family="noto_regular"  y="28"></text><text text-decoration="none" x="0" fill="#43A047" font-size="10pt" font-family="noto_regular"  y="47">+&#160;</text><text text-decoration="none" x="10" fill="#43A047" font-size="10pt" font-family="noto_regular"  y="47">Venue:&#160;</text><text text-decoration="none" x="52" fill="#43A047" font-size="10pt" font-family="noto_regular"  y="47">Char</text><text text-decoration="none" x="78" fill="#4b4b4b" font-size="10pt" font-family="noto_regular"  y="47"></text></g><g transform="translate(555, 138.6) rotate(0, 0, 0)" width="108.98" height="18.4"><text text-decoration="none" x="0" fill="#43A047" font-size="10pt" font-family="noto_regular"  y="15">+&#160;</text><text text-decoration="none" x="10" fill="#43A047" font-size="10pt" font-family="noto_regular"  y="15">UpdateDetails()</text><text text-decoration="none" x="99" fill="#4b4b4b" font-size="10pt" font-family="noto_regular"  y="15"></text></g></g><g id="FfAeGXV6ePj"><g transform="translate(550 310)"><rect x="0" y="0" width="180" height="160" rx="2" ry="2" fill="rgb(255,255,255)" stroke="#F2AF1D" stroke-width="2" stroke-linecap="round" stroke-linejoin="round"/><path d="M 0,28.4 L 180,28.4 M 0,93.6 L 180,93.6" fill="rgb(255,255,255)" stroke="#F2AF1D" stroke-width="2" stroke-linecap="round" stroke-linejoin="round"/></g><g transform="translate(619.565, 315) rotate(0, 20.435, 0)" width="40.87" height="18.4"><text text-decoration="none" x="2.4349999999999987" fill="#F2AF1D" font-size="10pt" font-family="noto_regular"  y="15">Admin</text><text text-decoration="none" x="38.435" fill="#4b4b4b" font-size="10pt" font-family="noto_regular"  y="15"></text></g><g transform="translate(555, 343.4) rotate(0, 0, 0)" width="105.61" height="55.2"><text text-decoration="none" x="0" fill="#F2AF1D" font-size="10pt" font-family="noto_regular"  y="12">-&#160;&#160;</text><text text-decoration="none" x="10" fill="#F2AF1D" font-size="10pt" font-family="noto_regular"  y="12">Id:&#160;</text><text text-decoration="none" x="27" fill="#F2AF1D" font-size="10pt" font-family="noto_regular"  y="12">Char</text><text text-decoration="none" x="53" fill="#F2AF1D" font-size="10pt" font-family="noto_regular"  y="12"></text><text text-decoration="none" x="0" fill="#F2AF1D" font-size="10pt" font-family="noto_regular"  y="28">-&#160;</text><text text-decoration="none" x="7" fill="#F2AF1D" font-size="10pt" font-family="noto_regular"  y="28">Name:&#160;</text><text text-decoration="none" x="47" fill="#F2AF1D" font-size="10pt" font-family="noto_regular"  y="28">Char</text><text text-decoration="none" x="73" fill="#F2AF1D" font-size="10pt" font-family="noto_regular"  y="28"></text><text text-decoration="none" x="0" fill="#F2AF1D" font-size="10pt" font-family="noto_regular"  y="47">-&#160;</text><text text-decoration="none" x="7" fill="#F2AF1D" font-size="10pt" font-family="noto_regular"  y="47">Password:&#160;</text><text text-decoration="none" x="70" fill="#F2AF1D" font-size="10pt" font-family="noto_regular"  y="47">Char</text><text text-decoration="none" x="96" fill="#4b4b4b" font-size="10pt" font-family="noto_regular"  y="47"></text></g><g transform="translate(555, 408.6) rotate(0, 0, 0)" width="154.43" height="55.2"><text text-decoration="none" x="0" fill="#F2AF1D" font-size="10pt" font-family="noto_regular"  y="12">+&#160;</text><text text-decoration="none" x="10" fill="#F2AF1D" font-size="10pt" font-family="noto_regular"  y="12">AddMovieRecords()</text><text text-decoration="none" x="122" fill="#F2AF1D" font-size="10pt" font-family="noto_regular"  y="12"></text><text text-decoration="none" x="0" fill="#F2AF1D" font-size="10pt" font-family="noto_regular"  y="28">+&#160;</text><text text-decoration="none" x="10" fill="#F2AF1D" font-size="10pt" font-family="noto_regular"  y="28">UpdateMovieRecords()</text><text text-decoration="none" x="140" fill="#F2AF1D" font-size="10pt" font-family="noto_regular"  y="28"></text><text text-decoration="none" x="0" fill="#F2AF1D" font-size="10pt" font-family="noto_regular"  y="47">+&#160;</text><text text-decoration="none" x="10" fill="#F2AF1D" font-size="10pt" font-family="noto_regular"  y="47">DeleteMovieRecords()</text><text text-decoration="none" x="137" fill="#4b4b4b" font-size="10pt" font-family="noto_regular"  y="47"></text></g></g><g id="BMA1TvnZGT0"><g transform="translate(870.0000000000001 180.00000000000006)"><rect x="0" y="0" width="180" height="232.40000000000003" rx="2" ry="2" fill="rgb(255,255,255)" stroke="#0995CE" stroke-width="2" stroke-linecap="round" stroke-linejoin="round"/><path d="M 0,28.4 L 180,28.4 M 0,112 L 180,112" fill="rgb(255,255,255)" stroke="#0995CE" stroke-width="2" stroke-linecap="round" stroke-linejoin="round"/></g><g transform="translate(909.995, 185.00000000000006) rotate(0, 50.005, 0)" width="100.01" height="18.4"><text text-decoration="none" x="5.005000000000003" fill="#0995CE" font-size="10pt" font-family="noto_regular"  y="15">Registered&#160;</text><text text-decoration="none" x="69.005" fill="#0995CE" font-size="10pt" font-family="noto_regular"  y="15">User</text><text text-decoration="none" x="95.005" fill="#4b4b4b" font-size="10pt" font-family="noto_regular"  y="15"></text></g><g transform="translate(875.0000000000001, 213.40000000000006) rotate(0, 0, 0)" width="96.2" height="73.6"><text text-decoration="none" x="0" fill="#0995CE" font-size="10pt" font-family="noto_regular"  y="12">-&#160;</text><text text-decoration="none" x="7" fill="#0995CE" font-size="10pt" font-family="noto_regular"  y="12">Id:&#160;</text><text text-decoration="none" x="24" fill="#0995CE" font-size="10pt" font-family="noto_regular"  y="12">Char</text><text text-decoration="none" x="50" fill="#0995CE" font-size="10pt" font-family="noto_regular"  y="12"></text><text text-decoration="none" x="0" fill="#0995CE" font-size="10pt" font-family="noto_regular"  y="28">-&#160;</text><text text-decoration="none" x="7" fill="#0995CE" font-size="10pt" font-family="noto_regular"  y="28">Name:&#160;</text><text text-decoration="none" x="47" fill="#0995CE" font-size="10pt" font-family="noto_regular"  y="28">Char</text><text text-decoration="none" x="73" fill="#0995CE" font-size="10pt" font-family="noto_regular"  y="28"></text><text text-decoration="none" x="0" fill="#0995CE" font-size="10pt" font-family="noto_regular"  y="44">-&#160;</text><text text-decoration="none" x="7" fill="#0995CE" font-size="10pt" font-family="noto_regular"  y="44">PhNo:&#160;</text><text text-decoration="none" x="44" fill="#0995CE" font-size="10pt" font-family="noto_regular"  y="44">Integer</text><text text-decoration="none" x="84" fill="#0995CE" font-size="10pt" font-family="noto_regular"  y="44"></text><text text-decoration="none" x="0" fill="#0995CE" font-size="10pt" font-family="noto_regular"  y="63">-&#160;</text><text text-decoration="none" x="7" fill="#0995CE" font-size="10pt" font-family="noto_regular"  y="63">Address:&#160;</text><text text-decoration="none" x="60" fill="#0995CE" font-size="10pt" font-family="noto_regular"  y="63">Char</text><text text-decoration="none" x="86" fill="#4b4b4b" font-size="10pt" font-family="noto_regular"  y="63"></text></g><g transform="translate(875.0000000000001, 297.00000000000006) rotate(0, 0, 0)" width="109.82" height="110.4"><text text-decoration="none" x="0" fill="#0995CE" font-size="10pt" font-family="noto_regular"  y="12">+&#160;</text><text text-decoration="none" x="10" fill="#0995CE" font-size="10pt" font-family="noto_regular"  y="12">Login()</text><text text-decoration="none" x="50" fill="#0995CE" font-size="10pt" font-family="noto_regular"  y="12"></text><text text-decoration="none" x="0" fill="#0995CE" font-size="10pt" font-family="noto_regular"  y="28">+&#160;</text><text text-decoration="none" x="10" fill="#0995CE" font-size="10pt" font-family="noto_regular"  y="28">Logout()</text><text text-decoration="none" x="58" fill="#0995CE" font-size="10pt" font-family="noto_regular"  y="28"></text><text text-decoration="none" x="0" fill="#0995CE" font-size="10pt" font-family="noto_regular"  y="44">+&#160;</text><text text-decoration="none" x="10" fill="#0995CE" font-size="10pt" font-family="noto_regular"  y="44">ViewMovies()</text><text text-decoration="none" x="88" fill="#0995CE" font-size="10pt" font-family="noto_regular"  y="44"></text><text text-decoration="none" x="0" fill="#0995CE" font-size="10pt" font-family="noto_regular"  y="60">+&#160;</text><text text-decoration="none" x="10" fill="#0995CE" font-size="10pt" font-family="noto_regular"  y="60">BookTicket()</text><text text-decoration="none" x="84" fill="#0995CE" font-size="10pt" font-family="noto_regular"  y="60"></text><text text-decoration="none" x="0" fill="#0995CE" font-size="10pt" font-family="noto_regular"  y="76">+&#160;</text><text text-decoration="none" x="10" fill="#0995CE" font-size="10pt" font-family="noto_regular"  y="76">MakePayment()</text><text text-decoration="none" x="101" fill="#0995CE" font-size="10pt" font-family="noto_regular"  y="76"></text><text text-decoration="none" x="0" fill="#0995CE" font-size="10pt" font-family="noto_regular"  y="95">+&#160;</text><text text-decoration="none" x="10" fill="#0995CE" font-size="10pt" font-family="noto_regular"  y="95">CancelTicket()</text><text text-decoration="none" x="94" fill="#4b4b4b" font-size="10pt" font-family="noto_regular"  y="95"></text></g></g><g id="qqaiZ2N0VZp"><mask id="cabdd" x="626" y="148" width="28" height="176" maskUnits="userSpaceOnUse"><rect x="626" y="148" width="28" height="176" fill="white" /><rect x="620.3" y="179.8" width="39.4" height="24.4" fill="black" /><rect x="627.915" y="267.8" width="24.17" height="24.4" fill="black" />undefinedundefined<rect x="610.83" y="222.77194789614356" width="58.34" height="24.4" fill="black" /></mask><g mask="url(#cabdd)"><path d="M 640,162 L 640,310" fill="none" stroke="#43a047" stroke-width="2" stroke-linecap="round" stroke-linejoin="round"/></g><g transform="translate(623.3, 182.8)" width="33.4" height="18.4"><text text-decoration="none" x="2.1999999999999993" fill="#43a047" font-size="10pt" font-family="noto_regular"  y="15">+&#160;</text><text text-decoration="none" x="12.2" fill="#43a047" font-size="10pt" font-family="noto_regular"  y="15">0..*</text><text text-decoration="none" x="31.2" fill="#4b4b4b" font-size="10pt" font-family="noto_regular"  y="15"></text></g><g transform="translate(630.915, 270.8)" width="18.17" height="18.4"><text text-decoration="none" x="0.5850000000000009" fill="#43a047" font-size="10pt" font-family="noto_regular"  y="15">+&#160;</text><text text-decoration="none" x="10.585" fill="#43a047" font-size="10pt" font-family="noto_regular"  y="15">1</text><text text-decoration="none" x="17.585" fill="#4b4b4b" font-size="10pt" font-family="noto_regular"  y="15"></text></g>undefinedundefined<g transform="translate(613.83, 225.77194789614356)" width="52.34" height="18.4"><text text-decoration="none" x="2.6700000000000017" fill="#43a047" font-size="10pt" font-family="noto_regular"  y="15">Updates</text><text text-decoration="none" x="49.67" fill="#4b4b4b" font-size="10pt" font-family="noto_regular"  y="15"></text></g></g><g id="ndnqruS7DVa"><mask id="80c93" x="716" y="87" width="258" height="107" maskUnits="userSpaceOnUse"><rect x="716" y="87" width="258" height="107" fill="white" /><rect x="740.3" y="88.8" width="39.4" height="24.4" fill="black" /><rect x="940.3" y="137.8" width="39.4" height="24.4" fill="black" /><rect x="838.76" y="88.8" width="35.44" height="24.4" fill="black" /></mask><g mask="url(#80c93)"><path d="M 730,101 L 960,101 L 960,180" fill="none" stroke="#0995ce" stroke-width="2" stroke-linecap="round" stroke-linejoin="round"/></g><g transform="translate(743.3, 91.8)" width="33.4" height="18.4"><text text-decoration="none" x="2.1999999999999993" fill="#0995ce" font-size="10pt" font-family="noto_regular"  y="15">+&#160;</text><text text-decoration="none" x="12.2" fill="#0995ce" font-size="10pt" font-family="noto_regular"  y="15">1..*</text><text text-decoration="none" x="31.2" fill="#4b4b4b" font-size="10pt" font-family="noto_regular"  y="15"></text></g><g transform="translate(943.3, 140.8)" width="33.4" height="18.4"><text text-decoration="none" x="2.1999999999999993" fill="#0995ce" font-size="10pt" font-family="noto_regular"  y="15">+&#160;</text><text text-decoration="none" x="12.2" fill="#0995ce" font-size="10pt" font-family="noto_regular"  y="15">1..*</text><text text-decoration="none" x="31.2" fill="#4b4b4b" font-size="10pt" font-family="noto_regular"  y="15"></text></g><g transform="translate(841.76, 91.8)" width="29.44" height="18.4"><text text-decoration="none" x="0.7200000000000006" fill="#0995ce" font-size="10pt" font-family="noto_regular"  y="15">View</text><text text-decoration="none" x="28.72" fill="#4b4b4b" font-size="10pt" font-family="noto_regular"  y="15"></text></g></g><g id="PJf8Iq88qMl"><g transform="translate(1230 100.60000499999992)"><rect x="0" y="0" width="230.00000000000014" height="179.3999950000001" rx="2" ry="2" fill="rgb(255,255,255)" stroke="#AD3CC1" stroke-width="2" stroke-linecap="round" stroke-linejoin="round"/><path d="M 0,28.4 L 230.00000000000014,28.4 M 0,148.8 L 230.00000000000014,148.8" fill="rgb(255,255,255)" stroke="#AD3CC1" stroke-width="2" stroke-linecap="round" stroke-linejoin="round"/></g><g transform="translate(1308.96, 105.60000499999992) rotate(0, 36.04, 0)" width="72.08" height="18.4"><text text-decoration="none" x="2.039999999999999" fill="#AD3CC1" font-size="10pt" font-family="noto_regular"  y="15">Book&#160;</text><text text-decoration="none" x="34.04" fill="#AD3CC1" font-size="10pt" font-family="noto_regular"  y="15">Ticket</text><text text-decoration="none" x="70.03999999999999" fill="#4b4b4b" font-size="10pt" font-family="noto_regular"  y="15"></text></g><g transform="translate(1235, 134.00000499999993) rotate(0, 0, 0)" width="194.23" height="110.4"><text text-decoration="none" x="0" fill="#AD3CC1" font-size="10pt" font-family="noto_regular"  y="12">-&#160;</text><text text-decoration="none" x="7" fill="#AD3CC1" font-size="10pt" font-family="noto_regular"  y="12">NoOfTicketsAvailable:&#160;</text><text text-decoration="none" x="137" fill="#AD3CC1" font-size="10pt" font-family="noto_regular"  y="12">Integer</text><text text-decoration="none" x="177" fill="#AD3CC1" font-size="10pt" font-family="noto_regular"  y="12"></text><text text-decoration="none" x="0" fill="#AD3CC1" font-size="10pt" font-family="noto_regular"  y="28">-&#160;</text><text text-decoration="none" x="7" fill="#AD3CC1" font-size="10pt" font-family="noto_regular"  y="28">MovieName:&#160;</text><text text-decoration="none" x="81" fill="#AD3CC1" font-size="10pt" font-family="noto_regular"  y="28">Char</text><text text-decoration="none" x="107" fill="#AD3CC1" font-size="10pt" font-family="noto_regular"  y="28"></text><text text-decoration="none" x="0" fill="#AD3CC1" font-size="10pt" font-family="noto_regular"  y="44">-&#160;</text><text text-decoration="none" x="7" fill="#AD3CC1" font-size="10pt" font-family="noto_regular"  y="44">ShowNo:&#160;</text><text text-decoration="none" x="61" fill="#AD3CC1" font-size="10pt" font-family="noto_regular"  y="44">Integer</text><text text-decoration="none" x="101" fill="#AD3CC1" font-size="10pt" font-family="noto_regular"  y="44"></text><text text-decoration="none" x="0" fill="#AD3CC1" font-size="10pt" font-family="noto_regular"  y="60">-&#160;</text><text text-decoration="none" x="7" fill="#AD3CC1" font-size="10pt" font-family="noto_regular"  y="60">Date:&#160;</text><text text-decoration="none" x="40" fill="#AD3CC1" font-size="10pt" font-family="noto_regular"  y="60">DateTime</text><text text-decoration="none" x="96" fill="#AD3CC1" font-size="10pt" font-family="noto_regular"  y="60"></text><text text-decoration="none" x="0" fill="#AD3CC1" font-size="10pt" font-family="noto_regular"  y="76">-&#160;</text><text text-decoration="none" x="7" fill="#AD3CC1" font-size="10pt" font-family="noto_regular"  y="76">Time:&#160;</text><text text-decoration="none" x="42" fill="#AD3CC1" font-size="10pt" font-family="noto_regular"  y="76">DateTime</text><text text-decoration="none" x="98" fill="#AD3CC1" font-size="10pt" font-family="noto_regular"  y="76"></text><text text-decoration="none" x="0" fill="#AD3CC1" font-size="10pt" font-family="noto_regular"  y="95">-&#160;</text><text text-decoration="none" x="7" fill="#AD3CC1" font-size="10pt" font-family="noto_regular"  y="95">Venue:&#160;</text><text text-decoration="none" x="49" fill="#AD3CC1" font-size="10pt" font-family="noto_regular"  y="95">Char</text><text text-decoration="none" x="75" fill="#4b4b4b" font-size="10pt" font-family="noto_regular"  y="95"></text></g><g transform="translate(1235, 254.40000499999994) rotate(0, 0, 0)" width="155.95" height="18.4"><text text-decoration="none" x="0" fill="#AD3CC1" font-size="10pt" font-family="noto_regular"  y="15">+&#160;</text><text text-decoration="none" x="10" fill="#AD3CC1" font-size="10pt" font-family="noto_regular"  y="15">UpdateSeatsAvailable()</text><text text-decoration="none" x="143" fill="#4b4b4b" font-size="10pt" font-family="noto_regular"  y="15"></text></g></g><g id="52eBd0ho9Wg"><mask id="45449" x="1036" y="176" width="208" height="134" maskUnits="userSpaceOnUse"><rect x="1036" y="176" width="208" height="134" fill="white" /><rect x="1060.2999259262003" y="283.86666650205825" width="39.4" height="24.4" fill="black" /><rect x="1180.3001666680555" y="177.90000027776853" width="39.4" height="24.4" fill="black" /><rect x="1121.04" y="216.43128085558234" width="37.92" height="24.4" fill="black" /></mask><g mask="url(#45449)"><path d="M 1050,296 L 1140,296.20000000000005 L 1140,243 L 1140,190.30000249999995 L 1230,190" fill="none" stroke="#ad3cc1" stroke-width="2" stroke-linecap="round" stroke-linejoin="round"/></g><g transform="translate(1063.2999259262003, 286.86666650205825)" width="33.4" height="18.4"><text text-decoration="none" x="2.1999999999999993" fill="#ad3cc1" font-size="10pt" font-family="noto_regular"  y="15">+&#160;</text><text text-decoration="none" x="12.2" fill="#ad3cc1" font-size="10pt" font-family="noto_regular"  y="15">1..*</text><text text-decoration="none" x="31.2" fill="#4b4b4b" font-size="10pt" font-family="noto_regular"  y="15"></text></g><g transform="translate(1183.3001666680555, 180.90000027776853)" width="33.4" height="18.4"><text text-decoration="none" x="2.1999999999999993" fill="#ad3cc1" font-size="10pt" font-family="noto_regular"  y="15">+&#160;</text><text text-decoration="none" x="12.2" fill="#ad3cc1" font-size="10pt" font-family="noto_regular"  y="15">1..*</text><text text-decoration="none" x="31.2" fill="#4b4b4b" font-size="10pt" font-family="noto_regular"  y="15"></text></g><g transform="translate(1124.04, 219.43128085558234)" width="31.92" height="18.4"><text text-decoration="none" x="1.4600000000000009" fill="#ad3cc1" font-size="10pt" font-family="noto_regular"  y="15">Book</text><text text-decoration="none" x="30.46" fill="#4b4b4b" font-size="10pt" font-family="noto_regular"  y="15"></text></g></g><g id="XfzndYOqOun"><g transform="translate(1240 420.0000000000001)"><rect x="0" y="0" width="220.00000000000003" height="159.99999999999986" rx="2" ry="2" fill="rgb(255,255,255)" stroke="#D94753" stroke-width="2" stroke-linecap="round" stroke-linejoin="round"/><path d="M 0,28.4 L 220.00000000000003,28.4 M 0,112 L 220.00000000000003,112" fill="rgb(255,255,255)" stroke="#D94753" stroke-width="2" stroke-linecap="round" stroke-linejoin="round"/></g><g transform="translate(1305.21, 425.0000000000001) rotate(0, 44.79, 0)" width="89.58" height="18.4"><text text-decoration="none" x="3.789999999999999" fill="#D94753" font-size="10pt" font-family="noto_regular"  y="15">MakePayment</text><text text-decoration="none" x="85.78999999999999" fill="#4b4b4b" font-size="10pt" font-family="noto_regular"  y="15"></text></g><g transform="translate(1245, 453.4000000000001) rotate(0, 0, 0)" width="147.87" height="73.6"><text text-decoration="none" x="0" fill="#D94753" font-size="10pt" font-family="noto_regular"  y="12">-&#160;&#160;</text><text text-decoration="none" x="10" fill="#D94753" font-size="10pt" font-family="noto_regular"  y="12">Id:&#160;</text><text text-decoration="none" x="27" fill="#D94753" font-size="10pt" font-family="noto_regular"  y="12">Char</text><text text-decoration="none" x="53" fill="#D94753" font-size="10pt" font-family="noto_regular"  y="12"></text><text text-decoration="none" x="0" fill="#D94753" font-size="10pt" font-family="noto_regular"  y="28">-&#160;</text><text text-decoration="none" x="7" fill="#D94753" font-size="10pt" font-family="noto_regular"  y="28">Amount:&#160;</text><text text-decoration="none" x="57" fill="#D94753" font-size="10pt" font-family="noto_regular"  y="28">Float</text><text text-decoration="none" x="85" fill="#D94753" font-size="10pt" font-family="noto_regular"  y="28"></text><text text-decoration="none" x="0" fill="#D94753" font-size="10pt" font-family="noto_regular"  y="44">-&#160;</text><text text-decoration="none" x="7" fill="#D94753" font-size="10pt" font-family="noto_regular"  y="44">TransactionId:&#160;</text><text text-decoration="none" x="92" fill="#D94753" font-size="10pt" font-family="noto_regular"  y="44">Integer</text><text text-decoration="none" x="132" fill="#D94753" font-size="10pt" font-family="noto_regular"  y="44"></text><text text-decoration="none" x="0" fill="#D94753" font-size="10pt" font-family="noto_regular"  y="63">-&#160;</text><text text-decoration="none" x="7" fill="#D94753" font-size="10pt" font-family="noto_regular"  y="63">UserId:&#160;</text><text text-decoration="none" x="50" fill="#D94753" font-size="10pt" font-family="noto_regular"  y="63">Char</text><text text-decoration="none" x="76" fill="#4b4b4b" font-size="10pt" font-family="noto_regular"  y="63"></text></g><g transform="translate(1245, 537.0000000000001) rotate(0, 0, 0)" width="197.7" height="36.8"><text text-decoration="none" x="0" fill="#D94753" font-size="10pt" font-family="noto_regular"  y="12">+&#160;</text><text text-decoration="none" x="10" fill="#D94753" font-size="10pt" font-family="noto_regular"  y="12">ConfirmTransaction()</text><text text-decoration="none" x="131" fill="#D94753" font-size="10pt" font-family="noto_regular"  y="12"></text><text text-decoration="none" x="0" fill="#D94753" font-size="10pt" font-family="noto_regular"  y="31">+&#160;</text><text text-decoration="none" x="10" fill="#D94753" font-size="10pt" font-family="noto_regular"  y="31">ReturnMoneyOnCancelation()</text><text text-decoration="none" x="177" fill="#4b4b4b" font-size="10pt" font-family="noto_regular"  y="31"></text></g></g><g id="558J3QszjJJ"><mask id="7951f" x="1036" y="340" width="218" height="174" maskUnits="userSpaceOnUse"><rect x="1036" y="340" width="218" height="174" fill="white" /><rect x="1067.9148295684263" y="341.9011230210172" width="24.17" height="24.4" fill="black" /><rect x="1197.915" y="487.8" width="24.17" height="24.4" fill="black" /><rect x="1089.48" y="420.71902231895376" width="99.04" height="24.4" fill="black" /></mask><g mask="url(#7951f)"><path d="M 1050,354 L 1139,354.30000000000007 L 1139,427 L 1139,500.00000000000006 L 1240,500" fill="none" stroke="#d94753" stroke-width="2" stroke-linecap="round" stroke-linejoin="round"/></g><g transform="translate(1070.9148295684263, 344.9011230210172)" width="18.17" height="18.4"><text text-decoration="none" x="0.5850000000000009" fill="#d94753" font-size="10pt" font-family="noto_regular"  y="15">+&#160;</text><text text-decoration="none" x="10.585" fill="#d94753" font-size="10pt" font-family="noto_regular"  y="15">1</text><text text-decoration="none" x="17.585" fill="#4b4b4b" font-size="10pt" font-family="noto_regular"  y="15"></text></g><g transform="translate(1200.915, 490.8)" width="18.17" height="18.4"><text text-decoration="none" x="0.5850000000000009" fill="#d94753" font-size="10pt" font-family="noto_regular"  y="15">+&#160;</text><text text-decoration="none" x="10.585" fill="#d94753" font-size="10pt" font-family="noto_regular"  y="15">1</text><text text-decoration="none" x="17.585" fill="#4b4b4b" font-size="10pt" font-family="noto_regular"  y="15"></text></g><g transform="translate(1092.48, 423.71902231895376)" width="93.04" height="18.4"><text text-decoration="none" x="4.020000000000003" fill="#d94753" font-size="10pt" font-family="noto_regular"  y="15">Make&#160;</text><text text-decoration="none" x="39.02" fill="#d94753" font-size="10pt" font-family="noto_regular"  y="15">Payment</text><text text-decoration="none" x="89.02000000000001" fill="#4b4b4b" font-size="10pt" font-family="noto_regular"  y="15"></text></g></g><g id="aacU2LHv8q5"><g transform="translate(870 520)"><rect x="0" y="0" width="180" height="110" rx="2" ry="2" fill="rgb(255,255,255)" stroke="#F47421" stroke-width="2" stroke-linecap="round" stroke-linejoin="round"/><path d="M 0,28.4 L 180,28.4 M 0,56.8 L 180,56.8" fill="rgb(255,255,255)" stroke="#F47421" stroke-width="2" stroke-linecap="round" stroke-linejoin="round"/></g><g transform="translate(940.18, 525) rotate(0, 19.82, 0)" width="39.64" height="18.4"><text text-decoration="none" x="1.8200000000000003" fill="#F47421" font-size="10pt" font-family="noto_regular"  y="15">Visitor</text><text text-decoration="none" x="37.82" fill="#4b4b4b" font-size="10pt" font-family="noto_regular"  y="15"></text></g><g transform="translate(875, 553.4) rotate(0, 0, 0)" width="86.09" height="18.4"><text text-decoration="none" x="0" fill="#F47421" font-size="10pt" font-family="noto_regular"  y="15">-&#160;&#160;</text><text text-decoration="none" x="10" fill="#F47421" font-size="10pt" font-family="noto_regular"  y="15">Name:&#160;</text><text text-decoration="none" x="50" fill="#F47421" font-size="10pt" font-family="noto_regular"  y="15">Char</text><text text-decoration="none" x="76" fill="#4b4b4b" font-size="10pt" font-family="noto_regular"  y="15"></text></g><g transform="translate(875, 581.8) rotate(0, 0, 0)" width="109.66" height="36.8"><text text-decoration="none" x="0" fill="#F47421" font-size="10pt" font-family="noto_regular"  y="12">+&#160;</text><text text-decoration="none" x="10" fill="#F47421" font-size="10pt" font-family="noto_regular"  y="12">GetRegistered()</text><text text-decoration="none" x="100" fill="#F47421" font-size="10pt" font-family="noto_regular"  y="12"></text><text text-decoration="none" x="0" fill="#F47421" font-size="10pt" font-family="noto_regular"  y="31">+&#160;</text><text text-decoration="none" x="10" fill="#F47421" font-size="10pt" font-family="noto_regular"  y="31">ViewMovies()</text><text text-decoration="none" x="88" fill="#4b4b4b" font-size="10pt" font-family="noto_regular"  y="31"></text></g></g><g id="qDqcAW9W3uD"><mask id="284a5" x="626" y="456" width="258" height="106" maskUnits="userSpaceOnUse"><rect x="626" y="456" width="258" height="106" fill="white" /><rect x="820.3000708882175" y="535.7347827628005" width="39.4" height="24.4" fill="black" /><rect x="627.915" y="487.8" width="24.17" height="24.4" fill="black" /><rect x="651.0238747198774" y="526.2308236406955" width="98.31" height="42.8" fill="black" /></mask><g mask="url(#284a5)"><path d="M 870,548 L 640,547.5 L 640,470" fill="none" stroke="#f2af1d" stroke-width="2" stroke-linecap="round" stroke-linejoin="round"/></g><g transform="translate(823.3000708882175, 538.7347827628005)" width="33.4" height="18.4"><text text-decoration="none" x="2.1999999999999993" fill="#f2af1d" font-size="10pt" font-family="noto_regular"  y="15">+&#160;</text><text text-decoration="none" x="12.2" fill="#f2af1d" font-size="10pt" font-family="noto_regular"  y="15">0..*</text><text text-decoration="none" x="31.2" fill="#4b4b4b" font-size="10pt" font-family="noto_regular"  y="15"></text></g><g transform="translate(630.915, 490.8)" width="18.17" height="18.4"><text text-decoration="none" x="0.5850000000000009" fill="#f2af1d" font-size="10pt" font-family="noto_regular"  y="15">+&#160;</text><text text-decoration="none" x="10.585" fill="#f2af1d" font-size="10pt" font-family="noto_regular"  y="15">1</text><text text-decoration="none" x="17.585" fill="#4b4b4b" font-size="10pt" font-family="noto_regular"  y="15"></text></g><g transform="translate(654.0238747198774, 529.2308236406955)" width="92.31" height="36.8"><text text-decoration="none" x="20.655" fill="#f2af1d" font-size="10pt" font-family="noto_regular"  y="12">Confirms</text><text text-decoration="none" x="71.655" fill="#f2af1d" font-size="10pt" font-family="noto_regular"  y="12"></text><text text-decoration="none" x="4.655000000000001" fill="#f2af1d" font-size="10pt" font-family="noto_regular"  y="31">Registration&#160;</text><text text-decoration="none" x="75.655" fill="#f2af1d" font-size="10pt" font-family="noto_regular"  y="31">of</text><text text-decoration="none" x="87.655" fill="#4b4b4b" font-size="10pt" font-family="noto_regular"  y="31"></text></g></g></svg>